<?xml version="1.0" encoding="utf-8"?>
<!-- Generator: Adobe Illustrator 25.0.1, SVG Export Plug-In . SVG Version: 6.00 Build 0)  -->
<svg version="1.1"
	 id="Layer_1" xmlns:inkscape="http://www.inkscape.org/namespaces/inkscape" xmlns:sodipodi="http://sodipodi.sourceforge.net/DTD/sodipodi-0.dtd" xmlns:svg="http://www.w3.org/2000/svg"
	 xmlns="http://www.w3.org/2000/svg" xmlns:xlink="http://www.w3.org/1999/xlink" x="0px" y="0px" viewBox="0 0 512 291"
	 style="enable-background:new 0 0 512 291;" xml:space="preserve">
<style type="text/css">
	.st0{fill:#333E48;}
	.st1{fill:#FF495C;}
	.st2{opacity:0.2;enable-background:new    ;}
	.st3{fill:#C3C6C8;}
	.st4{fill:#57C9E8;}
	.st5{opacity:0.2;fill:#FFFFFF;enable-background:new    ;}
	.st6{fill:#FFD13F;}
	.st7{fill:none;stroke:#FFFFFF;stroke-width:10;stroke-linecap:round;stroke-miterlimit:10;}
	.st8{fill:none;stroke:#FFD13F;stroke-width:5;stroke-miterlimit:10;}
</style>
<rect x="54.1" y="210.1" class="st0" width="259.9" height="25.9"/>
<sodipodi:namedview  bordercolor="#666666" borderopacity="1.0" height="511.99899px" id="namedview271" inkscape:current-layer="Layer_1" inkscape:cx="44.062337" inkscape:cy="291.06126" inkscape:pagecheckerboard="0" inkscape:pageopacity="0.0" inkscape:pageshadow="2" inkscape:window-height="1012" inkscape:window-maximized="1" inkscape:window-width="1920" inkscape:window-x="0" inkscape:window-y="0" inkscape:zoom="4.4028532" pagecolor="#ffffff" showgrid="false" width="512px">
	</sodipodi:namedview>
<path id="path158" class="st1" d="M481.4,52H325.7c-6.5,0-11.7,13.9-11.7,31v153h179.2V82.9C493.2,65.8,487.9,52,481.4,52z"/>
<path id="path158_1_" class="st1" d="M462.5,133.5H54.1c-16.9,0-30.7,5.8-30.7,12.9v63.7h469.7v-63.7
	C493.2,139.3,479.4,133.5,462.5,133.5z"/>
<path id="path160" class="st2" d="M332.8,236.8c0-33.1,26.8-59.9,59.9-59.9s59.9,26.8,59.9,59.9L332.8,236.8L332.8,236.8z"/>
<path id="path162" class="st2" d="M59.4,236.8c0-33.1,26.8-59.9,59.9-59.9s59.9,26.8,59.9,59.9L59.4,236.8L59.4,236.8z"/>
<circle id="circle164" class="st0" cx="392.7" cy="236.9" r="54"/>
<circle id="circle166" class="st3" cx="392.7" cy="236.9" r="24.1"/>
<circle id="circle168" class="st0" cx="119.4" cy="236.9" r="54"/>
<g id="g176" transform="translate(0,-110)">
	<circle id="circle170" class="st3" cx="119.4" cy="346.9" r="24.1"/>
	<path id="path172" class="st3" d="M38,301.2H8.8c-4.8,0-8.6,3.9-8.6,8.6v20.5c0,4.8,3.9,8.6,8.6,8.6H38c4.8,0,8.6-3.9,8.6-8.6
		v-20.5C46.6,305,42.8,301.2,38,301.2z"/>
	<path id="path174" class="st3" d="M474.2,327.2h29.2c4.8,0,8.6,3.9,8.6,8.6v20.5c0,4.8-3.9,8.6-8.6,8.6h-29.2
		c-4.8,0-8.6-3.9-8.6-8.6v-20.5C465.6,331,469.4,327.2,474.2,327.2z"/>
</g>
<g id="g182" transform="translate(0,-110)">
	<path id="path178" class="st4" d="M440.3,249.5h52.8v-56.6h-52.8c-4.6,0-8.3,3.7-8.3,8.3v40.1C432.1,245.8,435.8,249.5,440.3,249.5
		z"/>
	<path id="path180" class="st4" d="M347.1,249.5h44.4c4.6,0,8.3-3.7,8.3-8.3v-40.1c0-4.6-3.7-8.3-8.3-8.3h-44.4
		c-4.6,0-8.3,3.7-8.3,8.3v40.1C338.9,245.8,342.6,249.5,347.1,249.5z"/>
</g>
<path id="path206" class="st2" d="M357.7,171.8h-14.8c-4.5,0-8.2-3.7-8.2-8.2s3.7-8.2,8.2-8.2h14.8c4.5,0,8.2,3.7,8.2,8.2
	C365.9,168.1,362.2,171.8,357.7,171.8z"/>
<path id="path208" class="st0" d="M471.1,164.1h22.1v41.4h-27.6v-36C465.6,166.6,468,164.1,471.1,164.1z"/>
<path id="path210" class="st3" d="M248.2,223v-32.6c0-2.9-2.3-5.2-5.2-5.2h-63.8c-2.9,0-5.2,2.3-5.2,5.2V223c0,2.9,2.3,5.2,5.2,5.2
	H243C245.8,228.2,248.2,225.9,248.2,223L248.2,223z"/>
<path id="path212" class="st2" d="M238.3,224.5h-10.8c-3.2,0-5.9-2.7-5.9-5.9c0-3.2,2.7-5.9,5.9-5.9h10.8c3.2,0,5.9,2.7,5.9,5.9
	C244.2,221.9,241.6,224.5,238.3,224.5z"/>
<path id="path214" class="st2" d="M224.5,194.5h12.2c3.7,0,6.7,3,6.7,6.7s-3,6.7-6.7,6.7h-12.2c-3.7,0-6.7-3-6.7-6.7
	S220.8,194.5,224.5,194.5z"/>
<path id="path216" class="st2" d="M198.6,206.7v-8.8c0-2.7,2.2-4.8,4.8-4.8c2.7,0,4.8,2.2,4.8,4.8v8.8c0,2.7-2.2,4.8-4.8,4.8
	C200.8,211.6,198.6,209.4,198.6,206.7z"/>
<circle id="circle218" class="st2" cx="186" cy="195.1" r="6.7"/>
<circle id="circle220" class="st2" cx="188" cy="213.9" r="4.8"/>
<path id="path222" class="st5" d="M205.1,185h-26.8c-2.4,0-4.3,1.9-4.3,4.3V224l35.2-35.2C209,186.6,207.2,185,205.1,185z"/>
<g id="g230" transform="translate(0,-110)">
	<path id="path224" class="st6" d="M471.9,303.9h21.2v23.3h-21.2c-3.5,0-6.3-2.8-6.3-6.3v-10.6C465.6,306.8,468.4,303.9,471.9,303.9
		z"/>
	<path id="path226" class="st6" d="M40.1,272.6H18.8v23.3H40c3.5,0,6.3-2.8,6.3-6.3V279C46.4,275.5,43.6,272.6,40.1,272.6z"/>
</g>
<g id="g238" transform="translate(0,-110)">
	<path id="path234" class="st5" d="M485.5,192.9l-52.4,52.4c1.4,2.5,4.1,4.2,7.2,4.2h52.8v-56.6H485.5L485.5,192.9z"/>
	<path id="path236" class="st5" d="M391.5,192.9h-44.4c-4.6,0-8.3,3.7-8.3,8.3v40.1c0,4.6,3.7,8.3,8.3,8.3h2.9l49.6-49.6
		C399,196,395.6,192.9,391.5,192.9L391.5,192.9z"/>
</g>
<g id="g240">
</g>
<g id="g242">
</g>
<g id="g244">
</g>
<g id="g246">
</g>
<g id="g248">
</g>
<g id="g250">
</g>
<g id="g252">
</g>
<g id="g254">
</g>
<g id="g256">
</g>
<g id="g258">
</g>
<g id="g260">
</g>
<g id="g262">
</g>
<g id="g264">
</g>
<g id="g266">
</g>
<g id="g268">
</g>
<path class="st1" d="M258.3,144H23.4V99.1c0-5.5,4.5-10,10-10h214.9c5.5,0,10,4.5,10,10V144z"/>
<path class="st6" d="M258.3,99.1H23.4v0c0-5.5,4.5-10,10-10h214.9C253.8,89.1,258.3,93.6,258.3,99.1L258.3,99.1z"/>
<line class="st7" x1="416.8" y1="67.5" x2="416.8" y2="165.1"/>
<line class="st7" x1="325.9" y1="67.8" x2="325.9" y2="165.4"/>
<line class="st7" x1="485.2" y1="67.8" x2="325.9" y2="67.8"/>
<line class="st7" x1="485.2" y1="67.5" x2="485.2" y2="165.1"/>
<line class="st7" x1="485.2" y1="164.4" x2="458.5" y2="228"/>
<line class="st7" x1="457" y1="152.5" x2="457" y2="228.1"/>
<line class="st7" x1="483.9" y1="152.5" x2="457" y2="152.5"/>
<path class="st6" d="M230.2,152.5h-41c-5.5,0-10-4.5-10-10v-21.4c0-5.5,4.5-10,10-10h41c5.5,0,10,4.5,10,10v21.4
	C240.2,148,235.7,152.5,230.2,152.5z"/>
<circle class="st8" cx="55.2" cy="133.4" r="22.1"/>
<line class="st8" x1="32.6" y1="133.3" x2="76.8" y2="133.3"/>
<line class="st8" x1="54.7" y1="111.2" x2="54.7" y2="155.4"/>
<line class="st7" x1="263.8" y1="141.3" x2="263.8" y2="221.9"/>
<line class="st7" x1="308.4" y1="141.3" x2="308.4" y2="221.9"/>
<line class="st7" x1="308.4" y1="152.5" x2="263.8" y2="152.5"/>
<line class="st7" x1="308.4" y1="176.9" x2="263.8" y2="176.9"/>
<line class="st7" x1="308.4" y1="201.2" x2="263.8" y2="201.2"/>
</svg>
