<?xml version="1.0" encoding="UTF-8" standalone="no"?>
<!-- Generator: Adobe Illustrator 19.0.0, SVG Export Plug-In . SVG Version: 6.00 Build 0)  -->

<svg
   version="1.1"
   id="Layer_1"
   x="0px"
   y="0px"
   viewBox="0 0 512.00001 291.00001"
   xml:space="preserve"
   sodipodi:docname="FPT.svg"
   width="512"
   height="291"
   inkscape:version="1.1.2 (0a00cf5339, 2022-02-04)"
   xmlns:inkscape="http://www.inkscape.org/namespaces/inkscape"
   xmlns:sodipodi="http://sodipodi.sourceforge.net/DTD/sodipodi-0.dtd"
   xmlns="http://www.w3.org/2000/svg"
   xmlns:svg="http://www.w3.org/2000/svg"><defs
   id="defs273" /><sodipodi:namedview
   id="namedview271"
   pagecolor="#ffffff"
   bordercolor="#666666"
   borderopacity="1.0"
   inkscape:pageshadow="2"
   inkscape:pageopacity="0.0"
   inkscape:pagecheckerboard="0"
   showgrid="false"
   height="511.99899px"
   inkscape:zoom="4.4028532"
   inkscape:cx="44.062337"
   inkscape:cy="291.06126"
   inkscape:window-width="1920"
   inkscape:window-height="1012"
   inkscape:window-x="0"
   inkscape:window-y="0"
   inkscape:window-maximized="1"
   inkscape:current-layer="Layer_1"
   width="512px" />
<path
   style="fill:#ff495c"
   d="M 462.163,51.95 H 49.836 c -17.115,0 -30.989,13.873 -30.989,30.989 V 236.047 H 493.152 V 82.939 c 0,-17.116 -13.875,-30.989 -30.989,-30.989 z"
   id="path158" />
<path
   style="opacity:0.2;enable-background:new"
   d="m 332.778,236.849 c 0,-33.104 26.837,-59.941 59.941,-59.941 33.105,0 59.942,26.836 59.942,59.941 z"
   id="path160" />
<path
   style="opacity:0.2;enable-background:new"
   d="m 59.441,236.849 c 0,-33.104 26.837,-59.941 59.941,-59.941 33.104,0 59.941,26.836 59.941,59.941 z"
   id="path162" />
<circle
   style="fill:#333e48"
   cx="392.72101"
   cy="236.854"
   r="54.035"
   id="circle164" />
<circle
   style="fill:#c3c6c8"
   cx="392.72101"
   cy="236.854"
   r="24.103001"
   id="circle166" />
<circle
   style="fill:#333e48"
   cx="119.388"
   cy="236.854"
   r="54.035"
   id="circle168" />
<g
   id="g176"
   transform="translate(0,-110)">
	<circle
   style="fill:#c3c6c8"
   cx="119.377"
   cy="346.854"
   r="24.103001"
   id="circle170" />
	<path
   style="fill:#c3c6c8"
   d="M 37.809,327.199 H 8.602 C 3.85,327.199 0,331.05 0,335.801 v 20.491 c 0,4.752 3.851,8.602 8.602,8.602 h 29.207 c 4.752,0 8.603,-3.851 8.603,-8.602 v -20.49 c 0,-4.752 -3.851,-8.603 -8.603,-8.603 z"
   id="path172" />
	<path
   style="fill:#c3c6c8"
   d="m 474.189,327.199 h 29.208 c 4.752,0 8.602,3.851 8.602,8.602 v 20.491 c 0,4.752 -3.851,8.602 -8.602,8.602 h -29.208 c -4.751,0 -8.602,-3.851 -8.602,-8.602 v -20.49 c 0,-4.752 3.852,-8.603 8.602,-8.603 z"
   id="path174" />
</g>
<g
   id="g182"
   transform="translate(0,-110)">
	<path
   style="fill:#57c9e8"
   d="m 440.329,249.508 h 52.823 v -56.571 h -52.823 c -4.56,0 -8.258,3.697 -8.258,8.258 v 40.055 c 10e-4,4.562 3.699,8.258 8.258,8.258 z"
   id="path178" />
	<path
   style="fill:#57c9e8"
   d="m 347.146,249.508 h 44.361 c 4.56,0 8.258,-3.696 8.258,-8.258 v -40.055 c 0,-4.56 -3.697,-8.258 -8.258,-8.258 h -44.361 c -4.561,0 -8.258,3.697 -8.258,8.258 v 40.055 c 0,4.562 3.696,8.258 8.258,8.258 z"
   id="path180" />
</g>
<path
   style="fill:#ffd13f"
   d="m 425.956,14.56 h -28.474 c -5.171,0 -9.753,3.331 -11.348,8.25 l -9.452,29.14 h 70.073 l -9.452,-29.14 c -1.594,-4.919 -6.177,-8.25 -11.347,-8.25 z"
   id="path184" />
<polygon
   style="opacity:0.1;enable-background:new"
   points="446.756,161.95 442.389,148.487 381.047,148.487 376.682,161.95 "
   id="polygon186"
   transform="translate(0,-110)" />
<g
   id="g192"
   transform="translate(0,-110)">
	<path
   style="fill:#f0efef"
   d="M 347.005,111.11 H 77.325 c -3.798,0 -6.875,3.077 -6.875,6.874 v 10.601 c 0,3.797 3.077,6.874 6.875,6.874 h 269.68 c 3.798,0 6.875,-3.077 6.875,-6.874 v -10.601 c 0,-3.796 -3.078,-6.874 -6.875,-6.874 z"
   id="path188" />
	<rect
   x="91.960999"
   y="135.46201"
   style="fill:#f0efef"
   width="47.570999"
   height="26.487"
   id="rect190" />
</g>
<rect
   x="91.960999"
   y="25.462013"
   style="opacity:0.1;enable-background:new"
   width="47.570999"
   height="13.027"
   id="rect194" />
<g
   id="g202"
   transform="translate(0,-110)">
	<path
   style="fill:#ffffff"
   d="m 185.608,217.833 c -4.531,0 -8.202,-3.671 -8.202,-8.202 V 189.36 c 0,-4.531 3.671,-8.202 8.202,-8.202 4.531,0 8.202,3.671 8.202,8.202 v 20.271 c 0,4.531 -3.672,8.202 -8.202,8.202 z"
   id="path196" />
	<path
   style="fill:#ffffff"
   d="m 103.302,276.783 c -22.368,0 -40.567,-18.199 -40.567,-40.567 0,-22.368 18.199,-40.567 40.567,-40.567 22.368,0 40.567,18.199 40.567,40.567 0,22.368 -18.198,40.567 -40.567,40.567 z m 0,-64.73 c -13.323,0 -24.163,10.84 -24.163,24.163 0,13.323 10.84,24.163 24.163,24.163 13.323,0 24.163,-10.84 24.163,-24.163 0,-13.323 -10.84,-24.163 -24.163,-24.163 z"
   id="path198" />
	<path
   style="fill:#ffffff"
   d="m 156.306,276.783 h -53.003 v -16.404 h 53.003 c 11.636,0 21.101,-9.465 21.101,-21.1 v -18.932 h 16.404 v 18.931 c -0.001,20.681 -16.826,37.505 -37.505,37.505 z"
   id="path200" />
</g>
<path
   style="fill:#c3c6c8"
   d="m 196.298,93.851 h -21.381 c -3.657,0 -6.622,2.965 -6.622,6.623 v 13.095 c 0,3.657 2.965,6.622 6.622,6.622 h 21.381 c 3.657,0 6.623,-2.965 6.623,-6.622 v -13.095 c 0,-3.658 -2.966,-6.623 -6.623,-6.623 z"
   id="path204" />
<path
   style="opacity:0.2;enable-background:new"
   d="m 357.708,171.77 h -14.764 c -4.531,0 -8.202,-3.671 -8.202,-8.202 0,-4.531 3.671,-8.202 8.202,-8.202 h 14.764 c 4.531,0 8.202,3.671 8.202,8.202 0,4.531 -3.673,8.202 -8.202,8.202 z"
   id="path206" />
<path
   style="fill:#333e48"
   d="m 471.074,164.114 h 22.079 v 41.442 h -27.565 v -35.955 c -0.001,-3.029 2.456,-5.487 5.486,-5.487 z"
   id="path208" />
<path
   style="fill:#c3c6c8"
   d="m 295.317,79.361 h -55.252 c -4.862,0 -8.805,3.942 -8.805,8.805 V 196.42 c 0,4.863 3.942,8.805 8.805,8.805 h 55.252 c 4.862,0 8.805,-3.94 8.805,-8.805 V 88.165 c 0,-4.861 -3.943,-8.804 -8.805,-8.804 z"
   id="path210" />
<path
   style="opacity:0.2;enable-background:new"
   d="M 267.691,115.222 H 252.72 c -4.531,0 -8.202,-3.671 -8.202,-8.202 0,-4.531 3.671,-8.202 8.202,-8.202 h 14.971 c 4.531,0 8.202,3.671 8.202,8.202 0,4.531 -3.672,8.202 -8.202,8.202 z"
   id="path212" />
<path
   style="opacity:0.2;enable-background:new"
   d="M 267.691,139.327 H 252.72 c -4.531,0 -8.202,-3.671 -8.202,-8.202 0,-4.531 3.671,-8.202 8.202,-8.202 h 14.971 c 4.531,0 8.202,3.671 8.202,8.202 0,4.531 -3.672,8.202 -8.202,8.202 z"
   id="path214" />
<path
   style="opacity:0.2;enable-background:new"
   d="M 267.691,163.431 H 252.72 c -4.531,0 -8.202,-3.671 -8.202,-8.202 0,-4.531 3.671,-8.202 8.202,-8.202 h 14.971 c 4.531,0 8.202,3.671 8.202,8.202 0,4.531 -3.672,8.202 -8.202,8.202 z"
   id="path216" />
<circle
   style="opacity:0.2;enable-background:new"
   cx="255.661"
   cy="181.34299"
   r="8.1350002"
   id="circle218" />
<circle
   style="opacity:0.2;enable-background:new"
   cx="279.72"
   cy="181.34299"
   r="8.1350002"
   id="circle220" />
<path
   style="opacity:0.2;fill:#ffffff;enable-background:new"
   d="m 295.317,79.361 h -55.252 c -4.862,0 -8.805,3.942 -8.805,8.805 v 71.756 l 72.794,-72.794 c -0.514,-4.373 -4.227,-7.767 -8.737,-7.767 z"
   id="path222" />
<g
   id="g230"
   transform="translate(0,-110)">
	<path
   style="fill:#ffd13f"
   d="m 471.922,303.915 h 21.23 v 23.284 h -21.23 c -3.498,0 -6.335,-2.837 -6.335,-6.335 V 310.25 c 0,-3.498 2.836,-6.335 6.335,-6.335 z"
   id="path224" />
	<path
   style="fill:#ffd13f"
   d="m 40.077,303.915 h -21.23 v 23.284 h 21.23 c 3.498,0 6.335,-2.837 6.335,-6.335 V 310.25 c 0,-3.498 -2.835,-6.335 -6.335,-6.335 z"
   id="path226" />
	<path
   style="fill:#ffd13f"
   d="M 65.96,195.368 H 51.255 c -4.531,0 -8.202,-3.671 -8.202,-8.202 0,-4.531 3.671,-8.202 8.202,-8.202 H 65.96 c 4.531,0 8.202,3.671 8.202,8.202 0,4.531 -3.671,8.202 -8.202,8.202 z"
   id="path228" />
</g>
<path
   style="fill:#c3c6c8"
   d="M 85.52,134.418 H 56.354 c -4.531,0 -8.202,-3.671 -8.202,-8.202 0,-4.531 3.671,-8.202 8.202,-8.202 H 85.52 c 4.531,0 8.202,3.671 8.202,8.202 0,4.529 -3.671,8.202 -8.202,8.202 z"
   id="path232" />
<g
   id="g238"
   transform="translate(0,-110)">
	<path
   style="opacity:0.2;fill:#ffffff;enable-background:new"
   d="m 485.544,192.939 -52.39,52.39 c 1.421,2.495 4.099,4.18 7.175,4.18 h 52.823 v -56.571 h -7.608 z"
   id="path234" />
	<path
   style="opacity:0.2;fill:#ffffff;enable-background:new"
   d="m 391.506,192.939 h -44.361 c -4.561,0 -8.258,3.697 -8.258,8.258 v 40.055 c 0,4.561 3.696,8.258 8.258,8.258 h 2.911 l 49.598,-49.597 c -0.618,-3.95 -4.026,-6.974 -8.148,-6.974 z"
   id="path236" />
</g>
<g
   id="g240">
</g>
<g
   id="g242">
</g>
<g
   id="g244">
</g>
<g
   id="g246">
</g>
<g
   id="g248">
</g>
<g
   id="g250">
</g>
<g
   id="g252">
</g>
<g
   id="g254">
</g>
<g
   id="g256">
</g>
<g
   id="g258">
</g>
<g
   id="g260">
</g>
<g
   id="g262">
</g>
<g
   id="g264">
</g>
<g
   id="g266">
</g>
<g
   id="g268">
</g>
</svg>
