<?xml version="1.0" encoding="iso-8859-1"?>
<!-- Generator: Adobe Illustrator 19.0.0, SVG Export Plug-In . SVG Version: 6.00 Build 0)  -->
<svg version="1.1" id="Layer_1" xmlns="http://www.w3.org/2000/svg" xmlns:xlink="http://www.w3.org/1999/xlink" x="0px" y="0px"
	 viewBox="0 0 511.999 511.999" style="enable-background:new 0 0 511.999 511.999;" xml:space="preserve">
<path style="fill:#FF495C;" d="M462.163,161.95H49.836c-17.115,0-30.989,13.873-30.989,30.989v153.108h474.305V192.939
	C493.152,175.823,479.277,161.95,462.163,161.95z"/>
<path style="opacity:0.2;enable-background:new    ;" d="M332.778,346.849c0-33.104,26.837-59.941,59.941-59.941
	c33.105,0,59.942,26.836,59.942,59.941H332.778z"/>
<path style="opacity:0.2;enable-background:new    ;" d="M59.441,346.849c0-33.104,26.837-59.941,59.941-59.941
	s59.941,26.836,59.941,59.941H59.441z"/>
<circle style="fill:#333E48;" cx="392.721" cy="346.854" r="54.035"/>
<circle style="fill:#C3C6C8;" cx="392.721" cy="346.854" r="24.103"/>
<circle style="fill:#333E48;" cx="119.388" cy="346.854" r="54.035"/>
<g>
	<circle style="fill:#C3C6C8;" cx="119.377" cy="346.854" r="24.103"/>
	<path style="fill:#C3C6C8;" d="M37.809,327.199H8.602c-4.752,0-8.602,3.851-8.602,8.602v20.491c0,4.752,3.851,8.602,8.602,8.602
		h29.207c4.752,0,8.603-3.851,8.603-8.602v-20.49C46.412,331.05,42.561,327.199,37.809,327.199z"/>
	<path style="fill:#C3C6C8;" d="M474.189,327.199h29.208c4.752,0,8.602,3.851,8.602,8.602v20.491c0,4.752-3.851,8.602-8.602,8.602
		h-29.208c-4.751,0-8.602-3.851-8.602-8.602v-20.49C465.587,331.05,469.439,327.199,474.189,327.199z"/>
</g>
<g>
	<path style="fill:#57C9E8;" d="M440.329,249.508h52.823v-56.571h-52.823c-4.56,0-8.258,3.697-8.258,8.258v40.055
		C432.072,245.812,435.77,249.508,440.329,249.508z"/>
	<path style="fill:#57C9E8;" d="M347.146,249.508h44.361c4.56,0,8.258-3.696,8.258-8.258v-40.055c0-4.56-3.697-8.258-8.258-8.258
		h-44.361c-4.561,0-8.258,3.697-8.258,8.258v40.055C338.888,245.812,342.584,249.508,347.146,249.508z"/>
</g>
<path style="fill:#FFD13F;" d="M425.956,124.56h-28.474c-5.171,0-9.753,3.331-11.348,8.25l-9.452,29.14h70.073l-9.452-29.14
	C435.709,127.891,431.126,124.56,425.956,124.56z"/>
<polygon style="opacity:0.1;enable-background:new    ;" points="442.389,148.487 381.047,148.487 376.682,161.95 446.756,161.95 
	"/>
<g>
	<path style="fill:#F0EFEF;" d="M347.005,111.11H77.325c-3.798,0-6.875,3.077-6.875,6.874v10.601c0,3.797,3.077,6.874,6.875,6.874
		h269.68c3.798,0,6.875-3.077,6.875-6.874v-10.601C353.88,114.188,350.802,111.11,347.005,111.11z"/>
	<rect x="91.961" y="135.462" style="fill:#F0EFEF;" width="47.571" height="26.487"/>
</g>
<rect x="91.961" y="135.462" style="opacity:0.1;enable-background:new    ;" width="47.571" height="13.027"/>
<g>
	<path style="fill:#FFFFFF;" d="M185.608,217.833c-4.531,0-8.202-3.671-8.202-8.202v-20.271c0-4.531,3.671-8.202,8.202-8.202
		s8.202,3.671,8.202,8.202v20.271C193.81,214.162,190.138,217.833,185.608,217.833z"/>
	<path style="fill:#FFFFFF;" d="M103.302,276.783c-22.368,0-40.567-18.199-40.567-40.567s18.199-40.567,40.567-40.567
		s40.567,18.199,40.567,40.567S125.671,276.783,103.302,276.783z M103.302,212.053c-13.323,0-24.163,10.84-24.163,24.163
		c0,13.323,10.84,24.163,24.163,24.163s24.163-10.84,24.163-24.163S116.625,212.053,103.302,212.053z"/>
	<path style="fill:#FFFFFF;" d="M156.306,276.783h-53.003v-16.404h53.003c11.636,0,21.101-9.465,21.101-21.1v-18.932h16.404v18.931
		C193.81,259.959,176.985,276.783,156.306,276.783z"/>
</g>
<path style="fill:#C3C6C8;" d="M196.298,203.851h-21.381c-3.657,0-6.622,2.965-6.622,6.623v13.095c0,3.657,2.965,6.622,6.622,6.622
	h21.381c3.657,0,6.623-2.965,6.623-6.622v-13.095C202.921,206.816,199.955,203.851,196.298,203.851z"/>
<path style="opacity:0.2;enable-background:new    ;" d="M357.708,281.77h-14.764c-4.531,0-8.202-3.671-8.202-8.202
	s3.671-8.202,8.202-8.202h14.764c4.531,0,8.202,3.671,8.202,8.202S362.237,281.77,357.708,281.77z"/>
<path style="fill:#333E48;" d="M471.074,274.114h22.079v41.442h-27.565v-35.955C465.587,276.572,468.044,274.114,471.074,274.114z"
	/>
<path style="fill:#C3C6C8;" d="M295.317,189.361h-55.252c-4.862,0-8.805,3.942-8.805,8.805V306.42c0,4.863,3.942,8.805,8.805,8.805
	h55.252c4.862,0,8.805-3.94,8.805-8.805V198.165C304.122,193.304,300.179,189.361,295.317,189.361z"/>
<path style="opacity:0.2;enable-background:new    ;" d="M267.691,225.222h-14.971c-4.531,0-8.202-3.671-8.202-8.202
	s3.671-8.202,8.202-8.202h14.971c4.531,0,8.202,3.671,8.202,8.202S272.221,225.222,267.691,225.222z"/>
<path style="opacity:0.2;enable-background:new    ;" d="M267.691,249.327h-14.971c-4.531,0-8.202-3.671-8.202-8.202
	s3.671-8.202,8.202-8.202h14.971c4.531,0,8.202,3.671,8.202,8.202C275.893,245.656,272.221,249.327,267.691,249.327z"/>
<path style="opacity:0.2;enable-background:new    ;" d="M267.691,273.431h-14.971c-4.531,0-8.202-3.671-8.202-8.202
	c0-4.531,3.671-8.202,8.202-8.202h14.971c4.531,0,8.202,3.671,8.202,8.202S272.221,273.431,267.691,273.431z"/>
<circle style="opacity:0.2;enable-background:new    ;" cx="255.661" cy="291.343" r="8.135"/>
<circle style="opacity:0.2;enable-background:new    ;" cx="279.72" cy="291.343" r="8.135"/>
<path style="opacity:0.2;fill:#FFFFFF;enable-background:new    ;" d="M295.317,189.361h-55.252c-4.862,0-8.805,3.942-8.805,8.805
	v71.756l72.794-72.794C303.54,192.755,299.827,189.361,295.317,189.361z"/>
<g>
	<path style="fill:#FFD13F;" d="M471.922,303.915h21.23v23.284h-21.23c-3.498,0-6.335-2.837-6.335-6.335V310.25
		C465.587,306.752,468.423,303.915,471.922,303.915z"/>
	<path style="fill:#FFD13F;" d="M40.077,303.915h-21.23v23.284h21.23c3.498,0,6.335-2.837,6.335-6.335V310.25
		C46.412,306.752,43.577,303.915,40.077,303.915z"/>
	<path style="fill:#FFD13F;" d="M65.96,195.368H51.255c-4.531,0-8.202-3.671-8.202-8.202s3.671-8.202,8.202-8.202H65.96
		c4.531,0,8.202,3.671,8.202,8.202S70.491,195.368,65.96,195.368z"/>
</g>
<path style="fill:#C3C6C8;" d="M85.52,244.418H56.354c-4.531,0-8.202-3.671-8.202-8.202s3.671-8.202,8.202-8.202H85.52
	c4.531,0,8.202,3.671,8.202,8.202C93.722,240.745,90.051,244.418,85.52,244.418z"/>
<g>
	<path style="opacity:0.2;fill:#FFFFFF;enable-background:new    ;" d="M485.544,192.939l-52.39,52.39
		c1.421,2.495,4.099,4.18,7.175,4.18h52.823v-56.571h-7.608V192.939z"/>
	<path style="opacity:0.2;fill:#FFFFFF;enable-background:new    ;" d="M391.506,192.939h-44.361c-4.561,0-8.258,3.697-8.258,8.258
		v40.055c0,4.561,3.696,8.258,8.258,8.258h2.911l49.598-49.597C399.036,195.963,395.628,192.939,391.506,192.939z"/>
</g>
<g>
</g>
<g>
</g>
<g>
</g>
<g>
</g>
<g>
</g>
<g>
</g>
<g>
</g>
<g>
</g>
<g>
</g>
<g>
</g>
<g>
</g>
<g>
</g>
<g>
</g>
<g>
</g>
<g>
</g>
</svg>
