<?xml version="1.0" encoding="utf-8"?>
<!-- Generator: Adobe Illustrator 25.0.1, SVG Export Plug-In . SVG Version: 6.00 Build 0)  -->
<svg version="1.1"
	 id="Layer_1" xmlns:inkscape="http://www.inkscape.org/namespaces/inkscape" xmlns:sodipodi="http://sodipodi.sourceforge.net/DTD/sodipodi-0.dtd" xmlns:svg="http://www.w3.org/2000/svg"
	 xmlns="http://www.w3.org/2000/svg" xmlns:xlink="http://www.w3.org/1999/xlink" x="0px" y="0px" viewBox="0 0 512 291"
	 style="enable-background:new 0 0 512 291;" xml:space="preserve">
<style type="text/css">
	.st0{fill:#FF495C;}
	.st1{opacity:0.2;enable-background:new    ;}
	.st2{fill:#333E48;}
	.st3{fill:#C3C6C8;}
	.st4{fill:#57C9E8;}
	.st5{fill:#F0EFEF;}
	.st6{opacity:0.1;enable-background:new    ;}
	.st7{opacity:0.2;fill:#FFFFFF;enable-background:new    ;}
	.st8{fill:#FFD13F;}
</style>
<sodipodi:namedview  bordercolor="#666666" borderopacity="1.0" height="511.99899px" id="namedview271" inkscape:current-layer="Layer_1" inkscape:cx="44.062337" inkscape:cy="291.06126" inkscape:pagecheckerboard="0" inkscape:pageopacity="0.0" inkscape:pageshadow="2" inkscape:window-height="1012" inkscape:window-maximized="1" inkscape:window-width="1920" inkscape:window-x="0" inkscape:window-y="0" inkscape:zoom="4.4028532" pagecolor="#ffffff" showgrid="false" width="512px">
	</sodipodi:namedview>
<path id="path158" class="st0" d="M481.4,52H325.7c-6.5,0-11.7,13.9-11.7,31V236h179.2V82.9C493.2,65.8,487.9,52,481.4,52z"/>
<path id="path158_1_" class="st0" d="M462.5,159.9H54.1c-16.9,0-30.7,5.8-30.7,12.9v63.7h469.7v-63.7
	C493.2,165.7,479.4,159.9,462.5,159.9z"/>
<path id="path160" class="st1" d="M332.8,236.8c0-33.1,26.8-59.9,59.9-59.9c33.1,0,59.9,26.8,59.9,59.9H332.8z"/>
<path id="path162" class="st1" d="M59.4,236.8c0-33.1,26.8-59.9,59.9-59.9s59.9,26.8,59.9,59.9H59.4z"/>
<circle id="circle164" class="st2" cx="392.7" cy="236.9" r="54"/>
<circle id="circle166" class="st3" cx="392.7" cy="236.9" r="24.1"/>
<circle id="circle168" class="st2" cx="119.4" cy="236.9" r="54"/>
<g id="g176" transform="translate(0,-110)">
	<circle id="circle170" class="st3" cx="119.4" cy="346.9" r="24.1"/>
	<path id="path172" class="st3" d="M37.8,327.2H8.6c-4.8,0-8.6,3.9-8.6,8.6v20.5c0,4.8,3.9,8.6,8.6,8.6h29.2c4.8,0,8.6-3.9,8.6-8.6
		v-20.5C46.4,331,42.6,327.2,37.8,327.2z"/>
	<path id="path174" class="st3" d="M474.2,327.2h29.2c4.8,0,8.6,3.9,8.6,8.6v20.5c0,4.8-3.9,8.6-8.6,8.6h-29.2
		c-4.8,0-8.6-3.9-8.6-8.6v-20.5C465.6,331,469.4,327.2,474.2,327.2z"/>
</g>
<g id="g182" transform="translate(0,-110)">
	<path id="path178" class="st4" d="M440.3,249.5h52.8v-56.6h-52.8c-4.6,0-8.3,3.7-8.3,8.3v40.1C432.1,245.8,435.8,249.5,440.3,249.5
		z"/>
	<path id="path180" class="st4" d="M347.1,249.5h44.4c4.6,0,8.3-3.7,8.3-8.3v-40.1c0-4.6-3.7-8.3-8.3-8.3h-44.4
		c-4.6,0-8.3,3.7-8.3,8.3v40.1C338.9,245.8,342.6,249.5,347.1,249.5z"/>
</g>
<g id="g192" transform="translate(0,-110)">
	<path id="path188" class="st5" d="M479.7,122.3H59.5c-5.9,0-10.7,4.8-10.7,10.7v16.5c0,5.9,4.8,10.7,10.7,10.7h420.1
		c5.9,0,10.7-4.8,10.7-10.7v-16.5C490.4,127.1,485.6,122.3,479.7,122.3z"/>
	<rect id="rect190" x="82.3" y="160.3" class="st5" width="74.1" height="41.3"/>
</g>
<rect id="rect194" x="82.3" y="50.3" class="st6" width="74.1" height="20.3"/>
<path id="path206" class="st1" d="M357.7,171.8h-14.8c-4.5,0-8.2-3.7-8.2-8.2c0-4.5,3.7-8.2,8.2-8.2h14.8c4.5,0,8.2,3.7,8.2,8.2
	C365.9,168.1,362.2,171.8,357.7,171.8z"/>
<path id="path208" class="st2" d="M471.1,164.1h22.1v41.4h-27.6v-36C465.6,166.6,468,164.1,471.1,164.1z"/>
<path id="path210" class="st3" d="M302.3,220.8v-45.2c0-4-3.2-7.2-7.2-7.2h-88.6c-4,0-7.2,3.2-7.2,7.2v45.2c0,4,3.2,7.2,7.2,7.2
	h88.6C299,228,302.3,224.8,302.3,220.8L302.3,220.8z"/>
<path id="path212" class="st1" d="M288.6,222.9h-15c-4.5,0-8.2-3.7-8.2-8.2c0-4.5,3.7-8.2,8.2-8.2h15c4.5,0,8.2,3.7,8.2,8.2
	C296.8,219.3,293.1,222.9,288.6,222.9z"/>
<path id="path214" class="st1" d="M253.2,198.2V186c0-3.7,3-6.7,6.7-6.7s6.7,3,6.7,6.7v12.2c0,3.7-3,6.7-6.7,6.7
	S253.2,201.9,253.2,198.2z"/>
<path id="path216" class="st1" d="M233.5,198.2V186c0-3.7,3-6.7,6.7-6.7c3.7,0,6.7,3,6.7,6.7v12.2c0,3.7-3,6.7-6.7,6.7
	S233.5,201.9,233.5,198.2z"/>
<circle id="circle218" class="st1" cx="218.8" cy="188.4" r="6.7"/>
<circle id="circle220" class="st1" cx="218.8" cy="208.1" r="6.7"/>
<path id="path222" class="st7" d="M242.4,168h-37.2c-3.3,0-5.9,2.7-5.9,5.9v48.3l48.9-48.9C247.9,170.2,245.4,168,242.4,168z"/>
<g id="g230" transform="translate(0,-110)">
	<path id="path224" class="st8" d="M471.9,303.9h21.2v23.3h-21.2c-3.5,0-6.3-2.8-6.3-6.3v-10.6C465.6,306.8,468.4,303.9,471.9,303.9
		z"/>
	<path id="path226" class="st8" d="M40.1,303.9H18.8v23.3h21.2c3.5,0,6.3-2.8,6.3-6.3v-10.6C46.4,306.8,43.6,303.9,40.1,303.9z"/>
</g>
<g id="g238" transform="translate(0,-110)">
	<path id="path234" class="st7" d="M485.5,192.9l-52.4,52.4c1.4,2.5,4.1,4.2,7.2,4.2h52.8v-56.6L485.5,192.9L485.5,192.9z"/>
	<path id="path236" class="st7" d="M391.5,192.9h-44.4c-4.6,0-8.3,3.7-8.3,8.3v40.1c0,4.6,3.7,8.3,8.3,8.3h2.9l49.6-49.6
		C399,196,395.6,192.9,391.5,192.9L391.5,192.9z"/>
</g>
<g id="g240">
</g>
<g id="g242">
</g>
<g id="g244">
</g>
<g id="g246">
</g>
<g id="g248">
</g>
<g id="g250">
</g>
<g id="g252">
</g>
<g id="g254">
</g>
<g id="g256">
</g>
<g id="g258">
</g>
<g id="g260">
</g>
<g id="g262">
</g>
<g id="g264">
</g>
<g id="g266">
</g>
<g id="g268">
</g>
<rect x="67.8" y="91.6" class="st0" width="105.6" height="68.4"/>
<path class="st1" d="M136.6,91.6c-0.1,1-0.1,2-0.1,3c0,20.4,16.5,36.9,36.9,36.9V91.6H136.6z"/>
<path class="st1" d="M111.1,162.6H84.5c-7.4,0-13.3-6-13.3-13.3v-14.6c0-7.4,6-13.3,13.3-13.3h26.6c7.4,0,13.3,6,13.3,13.3v14.6
	C124.5,156.6,118.5,162.6,111.1,162.6z"/>
<rect x="128.7" y="96.3" transform="matrix(0.5712 0.8208 -0.8208 0.5712 156.7436 -57.3624)" class="st3" width="9.1" height="50.1"/>
<circle class="st0" cx="173.4" cy="94.5" r="31.2"/>
<path class="st0" d="M110.5,158.3H85.1c-5.5,0-10-4.5-10-10v-12.6c0-5.5,4.5-10,10-10h25.4c5.5,0,10,4.5,10,10v12.6
	C120.5,153.8,116,158.3,110.5,158.3z"/>
</svg>
