<?xml version="1.0" encoding="UTF-8" standalone="no"?>
<!-- Generator: Adobe Illustrator 16.0.0, SVG Export Plug-In . SVG Version: 6.00 Build 0)  -->

<svg
   version="1.1"
   id="Capa_1"
   x="0px"
   y="0px"
   width="512"
   height="291"
   viewBox="0 0 512 291"
   xml:space="preserve"
   sodipodi:docname="None.svg"
   inkscape:version="1.1.2 (0a00cf5339, 2022-02-04)"
   xmlns:inkscape="http://www.inkscape.org/namespaces/inkscape"
   xmlns:sodipodi="http://sodipodi.sourceforge.net/DTD/sodipodi-0.dtd"
   xmlns="http://www.w3.org/2000/svg"
   xmlns:svg="http://www.w3.org/2000/svg"><defs
   id="defs216" /><sodipodi:namedview
   id="namedview214"
   pagecolor="#ffffff"
   bordercolor="#666666"
   borderopacity="1.0"
   inkscape:pageshadow="2"
   inkscape:pageopacity="0.0"
   inkscape:pagecheckerboard="0"
   showgrid="false"
   inkscape:zoom="1.2404587"
   inkscape:cx="366.7998"
   inkscape:cy="239.02449"
   inkscape:window-width="1920"
   inkscape:window-height="1012"
   inkscape:window-x="0"
   inkscape:window-y="0"
   inkscape:window-maximized="1"
   inkscape:current-layer="Capa_1" />
<g
   id="g181"
   transform="matrix(0.35963055,0,0,0.35963055,82.452115,-9.732208)">
	<path
   d="m 655.6,108.107 -510.1,300 c -1.7,1 -3.2,1.5 -4.7,3.5 H 298 l 398.2,-234.3 c 19,-11.2 25.399,-35.8 14.2,-54.9 -11.2,-19.1 -35.7,-25.5 -54.8,-14.3 z"
   id="path177" />
	<path
   d="m 916,650.507 h -13 v -201.6 c 0,-3.7 -0.8,-7.4 -2.8,-10.601 l -69.101,-110.6 c -3.699,-5.8 -9.899,-9.2 -16.8,-9.2 H 531.5 c -10.8,0 -19.5,8.7 -19.5,19.5 v 103.5 H 250.7 108.9 53.5 c -11.3,0 -20.5,9.2 -20.5,20.5 v 27.5 h 25 v 86 H 33 v 75 H 20 c -11,0 -20,9 -20,20 v 47 c 0,11 9,20 20,20 h 13 19.7 53.7 c 0.1,0 1.4,8 1.5,8.7 1.6,8 4.2,15.7 7.6,23.1 3,6.5 6.7,12.8 10.9,18.601 4.2,5.8 9,11.199 14.3,16.1 5.3,4.9 11,9.3 17.2,13.1 6.2,3.801 12.8,7 19.6,9.601 7,2.6 14.2,4.399 21.5,5.5 5.3,0.8 10.7,1.2 16.1,1.2 29.5,0 58.2,-12.4 78.6,-33.7 16.8,-17.4 26.399,-39.5 30.1,-63.2 h 312.8 c -0.699,0.3 2.5,14.5 2.9,16 12.6,46 55.1,80.9 105.6,80.9 29.5,0 58.101,-12.4 78.601,-33.601 16.5,-17.1 26.6,-38.899 30,-62.3 H 916 c 11,0 20,-9 20,-20 v -47 c 0,-11 -9,-20 -20,-20 z m -797,-75 v -86 h 4.6 44.7 16.7 v 86 z m 193,0 h -66 v -86 h 66 z m 128,0 h -67 v -86 h 67 z m 127,0 h -66 v -86 h 66 z m 263.8,-51 H 676.5 c -8.3,0 -15.5,-6.7 -15.5,-15 v -124.3 c 0,-8.3 7.2,-14.7 15.5,-14.7 h 114.4 c 5.1,0 9.899,2.4 12.6,6.8 l 39.8,62.3 c 1.5,2.4 2.3,5.101 2.4,8 l 0.1,62 c 0,8.2 -6.7,14.9 -15,14.9 z m -570.7,199 c 0,8.3 -2.2,16 -6.1,22.7 -7.8,13.3 -22.3,22.3 -38.9,22.3 -24.9,0 -45,-20.1 -45,-45 0,-24.9 20.1,-45 45,-45 24.9,0 45,20.099 45,45 z m 529.9,0 c 0,8.3 -2.2,16 -6.1,22.7 -7.801,13.3 -22.301,22.3 -38.9,22.3 -24.9,0 -45,-20.1 -45,-45 0,-24.9 20.1,-45 45,-45 24.9,0 45,20.099 45,45 z"
   id="path179" />
</g>
<g
   id="g183">
</g>
<g
   id="g185">
</g>
<g
   id="g187">
</g>
<g
   id="g189">
</g>
<g
   id="g191">
</g>
<g
   id="g193">
</g>
<g
   id="g195">
</g>
<g
   id="g197">
</g>
<g
   id="g199">
</g>
<g
   id="g201">
</g>
<g
   id="g203">
</g>
<g
   id="g205">
</g>
<g
   id="g207">
</g>
<g
   id="g209">
</g>
<g
   id="g211">
</g>
</svg>
