<?xml version="1.0" encoding="utf-8"?>
<!-- Generator: Adobe Illustrator 25.0.1, SVG Export Plug-In . SVG Version: 6.00 Build 0)  -->
<svg version="1.1" id="Calque_1" xmlns="http://www.w3.org/2000/svg" xmlns:xlink="http://www.w3.org/1999/xlink" x="0px" y="0px"
	 viewBox="0 0 512 291" style="enable-background:new 0 0 512 291;" xml:space="preserve">
<style type="text/css">
	.st0{fill:#E94C5E;}
	.st1{opacity:0.2;fill:#020203;enable-background:new    ;}
	.st2{fill:#343E48;}
	.st3{fill:#C4C6C9;}
	.st4{fill:#5DC4E3;}
	.st5{fill:#FFD242;}
	.st6{opacity:0.2;fill:#FFFFFF;enable-background:new    ;}
	.st7{fill:none;stroke:#343E48;stroke-width:10;stroke-linecap:round;stroke-miterlimit:10;}
	.st8{fill:none;stroke:#FFD244;stroke-width:10;stroke-miterlimit:10;}
	.st9{fill:#FFFFFF;}
	.st10{font-family:'TheFountainofWishes-Regular';}
	.st11{font-size:36px;}
	.st12{fill:#5FB9FF;}
	.st13{opacity:0.1;enable-background:new    ;}
	.st14{fill:#57C9E8;}
</style>
<rect x="118.2" y="199.98" class="st0" width="263.74" height="65.34"/>
<path class="st0" d="M381.94,213.82H118.2V169.2c0-5.52,4.48-10,10-10h199.12C357.49,159.21,381.94,183.66,381.94,213.82
	L381.94,213.82z"/>
<path id="path162_1_" class="st1" d="M298.68,265.32c0-17.39,14.08-31.47,31.47-31.47c17.39,0,31.47,14.08,31.47,31.47H298.68
	L298.68,265.32z"/>
<path id="path162" class="st1" d="M133.14,265.32c0-17.39,14.08-31.47,31.47-31.47s31.47,14.08,31.47,31.47H133.14L133.14,265.32z"
	/>
<ellipse id="circle168" transform="matrix(0.1414 -0.9899 0.9899 0.1414 -121.3279 390.7475)" class="st2" cx="164.61" cy="265.32" rx="25.68" ry="25.68"/>
<circle id="circle170" class="st3" cx="164.6" cy="265.32" r="11.46"/>
<circle id="circle168_1_" class="st2" cx="330.15" cy="265.32" r="25.68"/>
<circle id="circle170_1_" class="st3" cx="330.15" cy="265.32" r="11.46"/>
<path class="st4" d="M301.53,159.39v42.07c0,5.61,4.55,10.15,10.15,10.15h59.87c5.61,0,10.15-4.55,10.15-10.15l0,0
	c0-23.23-18.83-42.07-42.07-42.07H301.53z"/>
<path id="path224" class="st5" d="M364.36,229.32h18.79v20.65h-18.79c-3.1,0-5.58-2.48-5.58-5.58v-9.4
	C358.77,231.88,361.26,229.32,364.36,229.32z"/>
<path class="st2" d="M378.31,268.81h-3.4c-3.76,0-6.81-3.05-6.81-6.81v-3.4c0-3.76,3.05-6.81,6.81-6.81h3.4
	c3.76,0,6.81,3.05,6.81,6.81v3.4C385.12,265.77,382.07,268.81,378.31,268.81z"/>
<path id="path236_1_" class="st6" d="M301.53,187.86v-24.15c0-2.48,3.03-4.5,6.78-4.5h32.87c3.74,0,6.78,2.01,6.78,4.5v1.58
	l-40.7,27C304.01,191.96,301.53,190.1,301.53,187.86L301.53,187.86z"/>
<line class="st7" x1="205.9" y1="247.98" x2="288.1" y2="247.98"/>
<path id="path224_1_" class="st5" d="M114.34,223.53h18.79v20.65h-18.79c-3.1,0-5.58-2.48-5.58-5.58v-9.4
	C108.76,226.1,111.24,223.53,114.34,223.53z"/>
<path class="st2" d="M125.9,272.92h-4.99c-5.52,0-10-4.48-10-10v-4.99c0-5.52,4.48-10,10-10h4.99c5.52,0,10,4.48,10,10v4.99
	C135.9,268.45,131.42,272.92,125.9,272.92z"/>
<line class="st8" x1="153.14" y1="225.69" x2="328.35" y2="225.69"/>
<text transform="matrix(1 0 0 1 128.9444 204.8041)" class="st9 st10 st11">F!RE</text>
<path id="path184" class="st12" d="M262.32,144.47H251.1c-2.04,0-3.84,1.31-4.47,3.25l-3.73,11.49h27.62l-3.73-11.49
	C266.16,145.79,264.36,144.47,262.32,144.47z"/>
<polygon id="polygon186" class="st13" points="270.52,159.21 268.8,153.9 244.62,153.9 242.9,159.21 "/>
<path id="path180" class="st14" d="M246.36,211.53h30.19c3.1,0,5.62-2.52,5.62-5.62v-27.26c0-3.1-2.52-5.62-5.62-5.62h-30.19
	c-3.1,0-5.62,2.52-5.62,5.62v27.26C240.74,209.02,243.26,211.53,246.36,211.53z"/>
<path id="path236" class="st6" d="M276.59,173.04H246.4c-3.1,0-5.62,2.52-5.62,5.62v27.26c0,3.1,2.52,5.62,5.62,5.62h1.98
	l33.75-33.75C281.71,175.09,279.4,173.04,276.59,173.04L276.59,173.04z"/>
<path id="path180_1_" class="st14" d="M192.56,211.75h30.19c3.1,0,5.62-2.52,5.62-5.62v-27.26c0-3.1-2.52-5.62-5.62-5.62h-30.19
	c-3.1,0-5.62,2.52-5.62,5.62v27.26C186.94,209.23,189.46,211.75,192.56,211.75z"/>
<path id="path236_2_" class="st6" d="M222.79,173.25H192.6c-3.1,0-5.62,2.52-5.62,5.62v27.26c0,3.1,2.52,5.62,5.62,5.62h1.98
	l33.75-33.75C227.91,175.31,225.59,173.25,222.79,173.25L222.79,173.25z"/>
</svg>
