<?xml version="1.0" encoding="utf-8"?>
<!-- Generator: Adobe Illustrator 25.0.1, SVG Export Plug-In . SVG Version: 6.00 Build 0)  -->
<svg version="1.1" id="Calque_1" xmlns="http://www.w3.org/2000/svg" xmlns:xlink="http://www.w3.org/1999/xlink" x="0px" y="0px"
	 viewBox="0 0 512 291" style="enable-background:new 0 0 512 291;" xml:space="preserve">
<style type="text/css">
	.st0{fill:#E94C5E;}
	.st1{opacity:0.2;fill:#020203;enable-background:new    ;}
	.st2{fill:#343E48;}
	.st3{fill:#C4C6C9;}
	.st4{fill:#5DC4E3;}
	.st5{fill:#FFD242;}
	.st6{opacity:0.2;fill:#FFFFFF;enable-background:new    ;}
	.st7{fill:none;stroke:#343E48;stroke-width:5;stroke-linecap:round;stroke-miterlimit:10;}
	.st8{fill:none;stroke:#343E48;stroke-width:10;stroke-linecap:round;stroke-miterlimit:10;}
	.st9{fill:none;stroke:#FFD244;stroke-width:10;stroke-miterlimit:10;}
	.st10{fill:#FFFFFF;}
	.st11{font-family:'TheFountainofWishes-Regular';}
	.st12{font-size:36px;}
	.st13{fill:#5FB9FF;}
	.st14{opacity:0.1;enable-background:new    ;}
</style>
<rect x="103.68" y="199.98" class="st0" width="305.41" height="65.34"/>
<path id="path162_1_" class="st1" d="M330.45,265.32c0-17.39,14.08-31.47,31.47-31.47c17.39,0,31.47,14.08,31.47,31.47H330.45
	L330.45,265.32z"/>
<path id="path162" class="st1" d="M118.62,265.32c0-17.39,14.08-31.47,31.47-31.47s31.47,14.08,31.47,31.47H118.62L118.62,265.32z"
	/>
<ellipse id="circle168" transform="matrix(0.0709 -0.9975 0.9975 0.0709 -125.2115 396.2142)" class="st2" cx="150.08" cy="265.32" rx="25.68" ry="25.68"/>
<circle id="circle170" class="st3" cx="150.08" cy="265.32" r="11.46"/>
<circle id="circle168_1_" class="st2" cx="361.92" cy="265.32" r="25.68"/>
<circle id="circle170_1_" class="st3" cx="361.92" cy="265.32" r="11.46"/>
<path class="st0" d="M367.42,211.58H103.68V141.4c0-5.52,4.48-10,10-10h253.74V211.58z"/>
<path class="st4" d="M409.09,211.58h-42.07c-5.61,0-10.15-4.55-10.15-10.15v-59.87c0-5.61,4.55-10.15,10.15-10.15l0,0
	c23.23,0,42.07,18.83,42.07,42.07V211.58z"/>
<path id="path224" class="st5" d="M390.48,218.99h18.79v20.65h-18.79c-3.1,0-5.58-2.48-5.58-5.58v-9.4
	C384.89,221.56,387.38,218.99,390.48,218.99z"/>
<path class="st2" d="M402.59,268.74h-4.99c-5.52,0-10-4.48-10-10v-4.99c0-5.52,4.48-10,10-10h4.99c5.52,0,10,4.48,10,10v4.99
	C412.59,264.27,408.11,268.74,402.59,268.74z"/>
<path class="st4" d="M261.45,211.58h-28.55c-1.75,0-3.16-4.48-3.16-10v-34.86c0-5.52,1.42-10,3.16-10h28.55
	c1.75,0,3.16,4.48,3.16,10v34.86C264.62,207.11,263.2,211.58,261.45,211.58z"/>
<path id="path236" class="st6" d="M259.65,156.73h-25.21c-2.59,0-4.69,2.65-4.69,5.92v28.71c0,3.27,2.1,5.92,4.69,5.92h1.65
	l28.19-35.55C263.93,158.9,261.99,156.73,259.65,156.73L259.65,156.73z"/>
<path id="path236_1_" class="st6" d="M380.62,211.58h24.15c2.48,0,4.5-3.03,4.5-6.78v-32.87c0-3.74-2.01-6.78-4.5-6.78h-1.58
	l-27,40.7C376.52,209.1,378.38,211.58,380.62,211.58L380.62,211.58z"/>
<line class="st7" x1="130.1" y1="206.31" x2="214.5" y2="206.31"/>
<line class="st8" x1="191.38" y1="247.98" x2="320.62" y2="247.98"/>
<path id="path224_1_" class="st5" d="M99.82,223.53h18.79v20.65H99.82c-3.1,0-5.58-2.48-5.58-5.58v-9.4
	C94.24,226.1,96.72,223.53,99.82,223.53z"/>
<path class="st2" d="M111.38,272.92h-4.99c-5.52,0-10-4.48-10-10v-4.99c0-5.52,4.48-10,10-10h4.99c5.52,0,10,4.48,10,10v4.99
	C121.38,268.45,116.9,272.92,111.38,272.92z"/>
<line class="st9" x1="115.29" y1="145.5" x2="339.99" y2="145.5"/>
<text transform="matrix(1 0 0 1 148.8304 191.6499)" class="st10 st11 st12">F!RE</text>
<path id="path184" class="st13" d="M349.87,116.67h-11.22c-2.04,0-3.84,1.31-4.47,3.25l-3.73,11.49h27.62l-3.73-11.49
	C353.71,117.99,351.91,116.67,349.87,116.67z"/>
<polygon id="polygon186" class="st14" points="358.07,131.41 356.35,126.1 332.17,126.1 330.45,131.41 "/>
<path id="path184_1_" class="st13" d="M160.51,116.67h-11.22c-2.04,0-3.84,1.31-4.47,3.25l-3.73,11.49h27.62l-3.73-11.49
	C164.36,117.99,162.55,116.67,160.51,116.67z"/>
<polygon id="polygon186_1_" class="st14" points="168.71,131.41 166.99,126.1 142.81,126.1 141.09,131.41 "/>
<path class="st5" d="M320.45,237.43h-27.37c-5.52,0-10-4.48-10-10v-58.07c0-5.52,4.48-10,10-10h27.37c5.52,0,10,4.48,10,10v58.07
	C330.45,232.95,325.97,237.43,320.45,237.43z"/>
</svg>
