<?xml version="1.0" encoding="utf-8"?>
<!-- Generator: Adobe Illustrator 25.0.1, SVG Export Plug-In . SVG Version: 6.00 Build 0)  -->
<svg version="1.1"
	 id="Layer_1" inkscape:version="1.1.2 (0a00cf5339, 2022-02-04)" xmlns:inkscape="http://www.inkscape.org/namespaces/inkscape" xmlns:sodipodi="http://sodipodi.sourceforge.net/DTD/sodipodi-0.dtd" xmlns:svg="http://www.w3.org/2000/svg"
	 xmlns="http://www.w3.org/2000/svg" xmlns:xlink="http://www.w3.org/1999/xlink" x="0px" y="0px" viewBox="0 0 512 291"
	 style="enable-background:new 0 0 512 291;" xml:space="preserve">
<style type="text/css">
	.st0{fill:#FF495C;}
	.st1{opacity:0.2;enable-background:new    ;}
	.st2{fill:#333E48;}
	.st3{fill:#C3C6C8;}
	.st4{fill:#57C9E8;}
	.st5{fill:#FFD13F;}
	.st6{opacity:0.1;enable-background:new    ;}
	.st7{opacity:0.2;fill:#FFFFFF;enable-background:new    ;}
	.st8{fill-rule:evenodd;clip-rule:evenodd;fill:#333E48;}
</style>
<sodipodi:namedview  bordercolor="#666666" borderopacity="1.0" height="511.99899px" id="namedview271" inkscape:current-layer="Layer_1" inkscape:cx="44.062337" inkscape:cy="291.06126" inkscape:pagecheckerboard="0" inkscape:pageopacity="0.0" inkscape:pageshadow="2" inkscape:window-height="1012" inkscape:window-maximized="1" inkscape:window-width="1920" inkscape:window-x="0" inkscape:window-y="0" inkscape:zoom="4.4028532" pagecolor="#ffffff" showgrid="false" width="512px">
	</sodipodi:namedview>
<path id="path158" class="st0" d="M462.2,52H49.8c-17.1,0-31,13.9-31,31V236h474.3V82.9C493.2,65.8,479.3,52,462.2,52z"/>
<path id="path160" class="st1" d="M332.8,236.8c0-33.1,26.8-59.9,59.9-59.9c33.1,0,59.9,26.8,59.9,59.9H332.8z"/>
<path id="path162" class="st1" d="M59.4,236.8c0-33.1,26.8-59.9,59.9-59.9s59.9,26.8,59.9,59.9H59.4z"/>
<circle id="circle164" class="st2" cx="392.7" cy="236.9" r="54"/>
<circle id="circle166" class="st3" cx="392.7" cy="236.9" r="24.1"/>
<circle id="circle168" class="st2" cx="119.4" cy="236.9" r="54"/>
<g id="g176" transform="translate(0,-110)">
	<circle id="circle170" class="st3" cx="119.4" cy="346.9" r="24.1"/>
	<path id="path172" class="st3" d="M37.8,327.2H8.6c-4.8,0-8.6,3.9-8.6,8.6v20.5c0,4.8,3.9,8.6,8.6,8.6h29.2c4.8,0,8.6-3.9,8.6-8.6
		v-20.5C46.4,331,42.6,327.2,37.8,327.2z"/>
	<path id="path174" class="st3" d="M474.2,327.2h29.2c4.8,0,8.6,3.9,8.6,8.6v20.5c0,4.8-3.9,8.6-8.6,8.6h-29.2
		c-4.8,0-8.6-3.9-8.6-8.6v-20.5C465.6,331,469.4,327.2,474.2,327.2z"/>
</g>
<g id="g182" transform="translate(0,-110)">
	<path id="path178" class="st4" d="M440.3,249.5h52.8v-56.6h-52.8c-4.6,0-8.3,3.7-8.3,8.3v40.1C432.1,245.8,435.8,249.5,440.3,249.5
		z"/>
	<path id="path180" class="st4" d="M347.1,249.5h44.4c4.6,0,8.3-3.7,8.3-8.3v-40.1c0-4.6-3.7-8.3-8.3-8.3h-44.4
		c-4.6,0-8.3,3.7-8.3,8.3v40.1C338.9,245.8,342.6,249.5,347.1,249.5z"/>
</g>
<path id="path184" class="st5" d="M426,14.6h-28.5c-5.2,0-9.8,3.3-11.3,8.3L376.7,52h70.1l-9.5-29.1C435.7,17.9,431.1,14.6,426,14.6
	z"/>
<polygon id="polygon186" class="st6" points="446.8,51.9 442.4,38.5 381,38.5 376.7,51.9 "/>
<path id="path206" class="st1" d="M357.7,171.8h-14.8c-4.5,0-8.2-3.7-8.2-8.2c0-4.5,3.7-8.2,8.2-8.2h14.8c4.5,0,8.2,3.7,8.2,8.2
	C365.9,168.1,362.2,171.8,357.7,171.8z"/>
<path id="path208" class="st2" d="M471.1,164.1h22.1v41.4h-27.6v-36C465.6,166.6,468,164.1,471.1,164.1z"/>
<path id="path210" class="st3" d="M295.3,79.4h-55.3c-4.9,0-8.8,3.9-8.8,8.8v108.3c0,4.9,3.9,8.8,8.8,8.8h55.3
	c4.9,0,8.8-3.9,8.8-8.8V88.2C304.1,83.3,300.2,79.4,295.3,79.4L295.3,79.4z"/>
<path id="path212" class="st1" d="M267.7,115.2h-15c-4.5,0-8.2-3.7-8.2-8.2s3.7-8.2,8.2-8.2h15c4.5,0,8.2,3.7,8.2,8.2
	S272.2,115.2,267.7,115.2z"/>
<path id="path214" class="st1" d="M267.7,139.3h-15c-4.5,0-8.2-3.7-8.2-8.2c0-4.5,3.7-8.2,8.2-8.2h15c4.5,0,8.2,3.7,8.2,8.2
	C275.9,135.7,272.2,139.3,267.7,139.3z"/>
<path id="path216" class="st1" d="M267.7,163.4h-15c-4.5,0-8.2-3.7-8.2-8.2c0-4.5,3.7-8.2,8.2-8.2h15c4.5,0,8.2,3.7,8.2,8.2
	C275.9,159.8,272.2,163.4,267.7,163.4z"/>
<circle id="circle218" class="st1" cx="255.7" cy="181.3" r="8.1"/>
<circle id="circle220" class="st1" cx="279.7" cy="181.3" r="8.1"/>
<path id="path222" class="st7" d="M295.3,79.4h-55.3c-4.9,0-8.8,3.9-8.8,8.8v71.8l72.8-72.8C303.5,82.8,299.8,79.4,295.3,79.4z"/>
<g id="g230" transform="translate(0,-110)">
	<path id="path224" class="st5" d="M471.9,303.9h21.2v23.3h-21.2c-3.5,0-6.3-2.8-6.3-6.3v-10.6C465.6,306.8,468.4,303.9,471.9,303.9
		z"/>
	<path id="path226" class="st5" d="M40.1,303.9H18.8v23.3h21.2c3.5,0,6.3-2.8,6.3-6.3v-10.6C46.4,306.8,43.6,303.9,40.1,303.9z"/>
	<path id="path228" class="st5" d="M66,195.4H51.3c-4.5,0-8.2-3.7-8.2-8.2c0-4.5,3.7-8.2,8.2-8.2H66c4.5,0,8.2,3.7,8.2,8.2
		C74.2,191.7,70.5,195.4,66,195.4z"/>
</g>
<g id="g238" transform="translate(0,-110)">
	<path id="path234" class="st7" d="M485.5,192.9l-52.4,52.4c1.4,2.5,4.1,4.2,7.2,4.2h52.8v-56.6L485.5,192.9L485.5,192.9z"/>
	<path id="path236" class="st7" d="M391.5,192.9h-44.4c-4.6,0-8.3,3.7-8.3,8.3v40.1c0,4.6,3.7,8.3,8.3,8.3h2.9l49.6-49.6
		C399,196,395.6,192.9,391.5,192.9L391.5,192.9z"/>
</g>
<g id="g240">
</g>
<g id="g242">
</g>
<g id="g244">
</g>
<g id="g246">
</g>
<g id="g248">
</g>
<g id="g250">
</g>
<g id="g252">
</g>
<g id="g254">
</g>
<g id="g256">
</g>
<g id="g258">
</g>
<g id="g260">
</g>
<g id="g262">
</g>
<g id="g264">
</g>
<g id="g266">
</g>
<g id="g268">
</g>
<path class="st5" d="M198,163.4H53.1c-5.5,0-10-4.5-10-10v-44.6c0-5.5,4.5-10,10-10H198c5.5,0,10,4.5,10,10v44.6
	C208,159,203.5,163.4,198,163.4z"/>
<path class="st5" d="M91.5,12.5L77.3,37c-3.8,6.7,1,15,8.7,15h28.3c7.7,0,12.5-8.3,8.7-15l-14.1-24.5C104.9,5.8,95.3,5.8,91.5,12.5z
	"/>
<sodipodi:namedview  bordercolor="#666666" borderopacity="1.0" gridtolerance="10000" guidetolerance="10" height="260px" id="base" inkscape:current-layer="svg2307" inkscape:cx="240.61188" inkscape:cy="154.13128" inkscape:document-units="px" inkscape:pageopacity="0.0" inkscape:pageshadow="2" inkscape:window-height="949" inkscape:window-width="1280" inkscape:window-x="0" inkscape:window-y="25" inkscape:zoom="0.69326923" objecttolerance="10" pagecolor="#ffffff" width="310px">
	</sodipodi:namedview>
<g id="layer1" transform="translate(2.441785,-204.56609)" inkscape:groupmode="layer" inkscape:label="Layer 1">
	<path id="path9347" class="st8" d="M107.5,240.7c0.7-0.7,1.1-1.5,0.6-2.7l-2-4.7c0.7-1.2,0.4-2.4-0.1-3l-4.4-4.4l-1.3,1.3l-1.5-1.5
		c-1.4-1.5-3.7,0.8-2.3,2.3l1.4,1.5l-8.3,8.3l-1.5-1.4c-1.5-1.4-3.8,0.9-2.3,2.3l1.5,1.5l-1.3,1.3l4.4,4.4c0.6,0.6,1.7,0.9,3,0.1
		l4.7,2c1.2,0.4,2,0.1,2.7-0.6L107.5,240.7z M106.2,239.7c-0.1,0.1-0.1,0.1-0.2,0.2l-6.1,6c-0.5,0.6-0.8,0.8-1.6,0.5l-3.6-1.7
		l10.1-10l1.6,3.5C106.8,238.8,106.6,239.2,106.2,239.7z M103.8,233.1c-0.6,0.6-1.6,0.6-2.2,0s-0.6-1.6,0-2.2c0.6-0.6,1.6-0.6,2.2,0
		C104.4,231.5,104.4,232.5,103.8,233.1z M93.2,243.7c-0.6,0.6-1.6,0.6-2.2,0s-0.6-1.6,0-2.2c0.6-0.6,1.6-0.6,2.2,0
		S93.8,243.1,93.2,243.7z M95.3,244.4L95.3,244.4z M95.3,244.4c0,0,0.1,0.1,0.1,0.1c0.3,0.2,0.5,0.2,0.8,0.2c0.3,0,0.6-0.1,0.8-0.2
		c0.2-0.2,2.1-2,2.3-2.3c0.3-0.5,0.3-1.1,0-1.6c0,0-0.1-0.1-0.1-0.1L95.3,244.4z M100.2,245.3c0.3-0.3,0.5-0.8,0.3-1.3
		c-0.1-0.2-0.1-0.2-0.3-0.4c-0.2-0.2-0.2-0.2-0.4-0.3c-0.3-0.1-0.6-0.1-1,0.1c-0.1,0.1-0.2,0.1-0.3,0.3c-0.2,0.2-0.2,0.2-0.3,0.4
		c-0.1,0.3-0.1,0.5,0,0.8c0.1,0.2,0.1,0.2,0.3,0.4c0.2,0.2,0.3,0.2,0.5,0.3C99.4,245.8,99.9,245.6,100.2,245.3z"/>
</g>
</svg>
