<?xml version="1.0" encoding="utf-8"?>
<!-- Generator: Adobe Illustrator 25.0.1, SVG Export Plug-In . SVG Version: 6.00 Build 0)  -->
<svg version="1.1" id="Calque_1" xmlns="http://www.w3.org/2000/svg" xmlns:xlink="http://www.w3.org/1999/xlink" x="0px" y="0px"
	 viewBox="0 0 512 291" style="enable-background:new 0 0 512 291;" xml:space="preserve">
<style type="text/css">
	.st0{fill:#E94C5E;}
	.st1{opacity:0.2;fill:#020203;enable-background:new    ;}
	.st2{fill:#343E48;}
	.st3{fill:#C4C6C9;}
	.st4{fill:#5DC4E3;}
	.st5{fill:#F0EFEF;}
	.st6{fill:#FFD242;}
	.st7{opacity:0.2;fill:#FFFFFF;enable-background:new    ;}
	.st8{fill:#343E48;stroke:#343E48;stroke-width:5;stroke-linecap:round;stroke-miterlimit:10;}
	.st9{fill:#343E48;stroke:#343E48;stroke-width:10;stroke-linecap:round;stroke-miterlimit:10;}
	.st10{fill:#FFD242;stroke:#FFD244;stroke-width:10;stroke-miterlimit:10;}
	.st11{fill:#FFFFFF;}
	.st12{font-family:'TheFountainofWishes-Regular';}
	.st13{font-size:36px;}
</style>
<rect x="103.68" y="199.98" class="st0" width="305.41" height="65.34"/>
<path id="path162_1_" class="st1" d="M330.45,265.32c0-17.39,14.08-31.47,31.47-31.47c17.39,0,31.47,14.08,31.47,31.47
	L330.45,265.32L330.45,265.32z"/>
<path id="path162" class="st1" d="M118.62,265.32c0-17.39,14.08-31.47,31.47-31.47s31.47,14.08,31.47,31.47L118.62,265.32
	L118.62,265.32z"/>
<circle id="circle168" class="st2" cx="150.08" cy="265.32" r="25.68"/>
<circle id="circle170" class="st3" cx="150.08" cy="265.32" r="11.46"/>
<circle id="circle168_1_" class="st2" cx="361.92" cy="265.32" r="25.68"/>
<circle id="circle170_1_" class="st3" cx="361.92" cy="265.32" r="11.46"/>
<path class="st0" d="M367.42,211.58H103.68v-70.18c0-5.52,4.48-10,10-10h253.74V211.58z"/>
<path class="st4" d="M409.09,211.58h-42.07c-5.61,0-10.15-4.55-10.15-10.15v-59.87c0-5.61,4.55-10.15,10.15-10.15h0
	c23.23,0,42.07,18.83,42.07,42.07V211.58z"/>
<g id="g192" transform="translate(0,-110)">
	<path id="path188" class="st5" d="M316.15,206.16H129.17c-2.63,0-4.77,2.13-4.77,4.77v7.35c0,2.63,2.13,4.77,4.77,4.77h186.98
		c2.63,0,4.77-2.13,4.77-4.77v-7.35C320.91,208.29,318.78,206.16,316.15,206.16z"/>
	<rect id="rect190" x="139.32" y="223.04" class="st5" width="32.98" height="18.36"/>
</g>
<path id="path224" class="st6" d="M390.48,218.99h18.79v20.65h-18.79c-3.1,0-5.58-2.48-5.58-5.58v-9.4
	C384.89,221.56,387.38,218.99,390.48,218.99z"/>
<path class="st2" d="M402.59,268.74h-4.99c-5.52,0-10-4.48-10-10v-4.99c0-5.52,4.48-10,10-10h4.99c5.52,0,10,4.48,10,10v4.99
	C412.59,264.27,408.11,268.74,402.59,268.74z"/>
<path class="st4" d="M329.99,211.58h-90.24c-5.52,0-10-4.48-10-10v-34.86c0-5.52,4.48-10,10-10h90.24c5.52,0,10,4.48,10,10v34.86
	C339.99,207.11,335.51,211.58,329.99,211.58z"/>
<path id="path236" class="st7" d="M324.29,156.73h-79.71c-8.2,0-14.84,3.58-14.84,8.01v38.84c0,4.42,6.64,8.01,14.84,8.01h5.23
	l89.12-48.09C337.82,159.66,331.7,156.73,324.29,156.73L324.29,156.73z"/>
<path id="path236_1_" class="st7" d="M380.62,211.58h24.15c2.48,0,4.5-3.03,4.5-6.78v-32.87c0-3.74-2.01-6.78-4.5-6.78h-1.58
	l-27,40.7C376.52,209.1,378.38,211.58,380.62,211.58L380.62,211.58z"/>
<line class="st8" x1="130.1" y1="206.31" x2="214.5" y2="206.31"/>
<line class="st9" x1="191.38" y1="247.98" x2="320.62" y2="247.98"/>
<path id="path224_1_" class="st6" d="M99.82,223.53h18.79v20.65H99.82c-3.1,0-5.58-2.48-5.58-5.58v-9.4
	C94.24,226.1,96.72,223.53,99.82,223.53z"/>
<path class="st2" d="M111.38,272.92h-4.99c-5.52,0-10-4.48-10-10v-4.99c0-5.52,4.48-10,10-10h4.99c5.52,0,10,4.48,10,10v4.99
	C121.38,268.45,116.9,272.92,111.38,272.92z"/>
<line class="st10" x1="115.29" y1="145.5" x2="339.99" y2="145.5"/>
<text transform="matrix(1 0 0 1 148.8304 191.6499)" class="st11 st12 st13">F!RE</text>
</svg>
